<svg width="110" height="86" viewBox="0 0 110 86" fill="black" xmlns="http://www.w3.org/2000/svg">
<mask id="mask0_52_5" maskUnits="userSpaceOnUse" x="0" y="0" width="110" height="86">
<path d="M110 0H0V86H110V0Z" fill="white"/>
</mask>
<g mask="url(#mask0_52_5)">
<path d="M46.7665 33.5149L61.2957 53.2232H42.4123C40.304 53.2232 38.3332 52.3632 37.279 50.9299C36.2248 49.4966 36.2248 47.7407 37.279 46.3432L46.7665 33.5149ZM32.4408 56.588H109.991V83.4272C109.991 84.8247 108.524 85.9713 106.737 86.0072H54.1658L32.4408 56.588ZM47.85 0H66.55L26.125 54.7533L49.225 86H3.25417C1.46667 86 0 84.8175 0 83.42V64.7867L47.85 0ZM71.5 0H106.7C108.533 0 110 1.14667 110 2.58V53.2483H66.275L49.225 30.1717L71.5 0Z" fill="white"/>
</g>
</svg>